<?xml version="1.0" encoding="UTF-8" standalone="no"?>
<!-- Created with Inkscape (http://www.inkscape.org/) -->

<svg
   xmlns:dc="http://purl.org/dc/elements/1.1/"
   xmlns:cc="http://creativecommons.org/ns#"
   xmlns:rdf="http://www.w3.org/1999/02/22-rdf-syntax-ns#"
   xmlns:svg="http://www.w3.org/2000/svg"
   xmlns="http://www.w3.org/2000/svg"
   xmlns:sodipodi="http://sodipodi.sourceforge.net/DTD/sodipodi-0.dtd"
   xmlns:inkscape="http://www.inkscape.org/namespaces/inkscape"
   width="212.5"
   height="203"
   id="svg2"
   version="1.1"
   inkscape:version="0.48.4 r9939"
   sodipodi:docname="cordova.svg">
  <defs
     id="defs4" />
  <sodipodi:namedview
     id="base"
     pagecolor="#000000"
     bordercolor="#666666"
     borderopacity="1.0"
     inkscape:pageopacity="1"
     inkscape:pageshadow="2"
     inkscape:zoom="1.979899"
     inkscape:cx="92.152293"
     inkscape:cy="228.2424"
     inkscape:document-units="px"
     inkscape:current-layer="g3128"
     showgrid="false"
     inkscape:window-width="3104"
     inkscape:window-height="1758"
     inkscape:window-x="96"
     inkscape:window-y="42"
     inkscape:window-maximized="1" />
  <metadata
     id="metadata7">
    <rdf:RDF>
      <cc:Work
         rdf:about="">
        <dc:format>image/svg+xml</dc:format>
        <dc:type
           rdf:resource="http://purl.org/dc/dcmitype/StillImage" />
        <dc:title />
      </cc:Work>
    </rdf:RDF>
  </metadata>
  <g
     inkscape:label="Layer 1"
     inkscape:groupmode="layer"
     id="layer1"
     transform="translate(0,-849.36218)">
    <g
       id="g3128"
       transform="translate(-128.57141,425.1479)">
      <g
         id="g3130"
         transform="translate(128.57141,424.21428)"
         style="fill:#b5e853;fill-opacity:1">
        <path
           id="path3132"
           d="m 193.2,203 h -34.4 l 2.4,-29 h -16.9 l -2.4,29 H 70.6 L 68.2,174 H 51.3 l 2.4,29 H 19.3 L 0,77.3 48.3,0 H 164.2 L 212.5,77.3 193.2,203 z M 154.5,38.7 h -31 l 2.1,14.5 H 86.9 L 89,38.7 H 58 l -19.4,38.6 9.7,77.3 H 164.2 L 173.9,77.3 154.5,38.7 z M 137.6,129 c -2.7,0 -4.8,-8 -4.8,-18 0,-10 2.2,-18 4.8,-18 2.7,0 4.8,8 4.8,18 0,10 -2.1,18 -4.8,18 z m -60.9,1.5 c -2.7,0 -4.8,-8 -4.8,-18 0,-10 2.2,-18 4.8,-18 2.7,0 4.8,8 4.8,18 0,10 -2.2,18 -4.8,18 z"
           class="st0"
           inkscape:connector-curvature="0"
           style="fill:#b5e853;fill-opacity:1" />
      </g>
    </g>
  </g>
  <style
     id="style3126"
     type="text/css">
	.st0{fill:#FFFFFF;}
	.st1{fill:#A5B0B8;}
	.st2{fill:#fff;}
</style>
</svg>
